<mxfile host="app.diagrams.net" agent="Mozilla/5.0 (Windows NT 10.0; Win64; x64) AppleWebKit/537.36 (KHTML, like Gecko) Chrome/136.0.0.0 Safari/537.36" version="26.2.14">
  <diagram id="C5RBs43oDa-KdzZeNtuy" name="Page-1">
    <mxGraphModel dx="1194" dy="683" grid="1" gridSize="10" guides="1" tooltips="1" connect="1" arrows="1" fold="1" page="1" pageScale="1" pageWidth="827" pageHeight="1169" math="0" shadow="0">
      <root>
        <mxCell id="WIyWlLk6GJQsqaUBKTNV-0" />
        <mxCell id="WIyWlLk6GJQsqaUBKTNV-1" parent="WIyWlLk6GJQsqaUBKTNV-0" />
        <mxCell id="d5qLYsP91JJ5EmV9utKJ-78" style="edgeStyle=none;rounded=0;orthogonalLoop=1;jettySize=auto;html=1;entryX=1;entryY=0.5;entryDx=0;entryDy=0;" edge="1" parent="WIyWlLk6GJQsqaUBKTNV-1" source="d5qLYsP91JJ5EmV9utKJ-0" target="d5qLYsP91JJ5EmV9utKJ-74">
          <mxGeometry relative="1" as="geometry" />
        </mxCell>
        <mxCell id="d5qLYsP91JJ5EmV9utKJ-79" style="edgeStyle=none;rounded=0;orthogonalLoop=1;jettySize=auto;html=1;" edge="1" parent="WIyWlLk6GJQsqaUBKTNV-1" source="d5qLYsP91JJ5EmV9utKJ-0" target="d5qLYsP91JJ5EmV9utKJ-75">
          <mxGeometry relative="1" as="geometry" />
        </mxCell>
        <mxCell id="d5qLYsP91JJ5EmV9utKJ-80" style="edgeStyle=none;rounded=0;orthogonalLoop=1;jettySize=auto;html=1;entryX=1;entryY=0.5;entryDx=0;entryDy=0;" edge="1" parent="WIyWlLk6GJQsqaUBKTNV-1" source="d5qLYsP91JJ5EmV9utKJ-0" target="d5qLYsP91JJ5EmV9utKJ-76">
          <mxGeometry relative="1" as="geometry" />
        </mxCell>
        <mxCell id="d5qLYsP91JJ5EmV9utKJ-81" style="edgeStyle=none;rounded=0;orthogonalLoop=1;jettySize=auto;html=1;entryX=1;entryY=0;entryDx=0;entryDy=0;" edge="1" parent="WIyWlLk6GJQsqaUBKTNV-1" source="d5qLYsP91JJ5EmV9utKJ-0" target="d5qLYsP91JJ5EmV9utKJ-77">
          <mxGeometry relative="1" as="geometry" />
        </mxCell>
        <mxCell id="d5qLYsP91JJ5EmV9utKJ-82" style="edgeStyle=none;rounded=0;orthogonalLoop=1;jettySize=auto;html=1;" edge="1" parent="WIyWlLk6GJQsqaUBKTNV-1" source="d5qLYsP91JJ5EmV9utKJ-0" target="d5qLYsP91JJ5EmV9utKJ-45">
          <mxGeometry relative="1" as="geometry" />
        </mxCell>
        <mxCell id="d5qLYsP91JJ5EmV9utKJ-0" value="Productos" style="html=1;whiteSpace=wrap;" vertex="1" parent="WIyWlLk6GJQsqaUBKTNV-1">
          <mxGeometry x="911.5" y="80" width="110" height="50" as="geometry" />
        </mxCell>
        <mxCell id="d5qLYsP91JJ5EmV9utKJ-35" style="edgeStyle=none;rounded=0;orthogonalLoop=1;jettySize=auto;html=1;" edge="1" parent="WIyWlLk6GJQsqaUBKTNV-1" source="d5qLYsP91JJ5EmV9utKJ-1" target="d5qLYsP91JJ5EmV9utKJ-33">
          <mxGeometry relative="1" as="geometry" />
        </mxCell>
        <mxCell id="d5qLYsP91JJ5EmV9utKJ-36" style="edgeStyle=none;rounded=0;orthogonalLoop=1;jettySize=auto;html=1;entryX=0.5;entryY=0;entryDx=0;entryDy=0;" edge="1" parent="WIyWlLk6GJQsqaUBKTNV-1" source="d5qLYsP91JJ5EmV9utKJ-1" target="d5qLYsP91JJ5EmV9utKJ-34">
          <mxGeometry relative="1" as="geometry" />
        </mxCell>
        <mxCell id="d5qLYsP91JJ5EmV9utKJ-1" value="Categorias" style="html=1;whiteSpace=wrap;" vertex="1" parent="WIyWlLk6GJQsqaUBKTNV-1">
          <mxGeometry x="1131" y="450" width="110" height="50" as="geometry" />
        </mxCell>
        <mxCell id="d5qLYsP91JJ5EmV9utKJ-29" style="edgeStyle=none;rounded=0;orthogonalLoop=1;jettySize=auto;html=1;entryX=0;entryY=0.5;entryDx=0;entryDy=0;" edge="1" parent="WIyWlLk6GJQsqaUBKTNV-1" source="d5qLYsP91JJ5EmV9utKJ-2" target="d5qLYsP91JJ5EmV9utKJ-27">
          <mxGeometry relative="1" as="geometry" />
        </mxCell>
        <mxCell id="d5qLYsP91JJ5EmV9utKJ-30" style="edgeStyle=none;rounded=0;orthogonalLoop=1;jettySize=auto;html=1;" edge="1" parent="WIyWlLk6GJQsqaUBKTNV-1" source="d5qLYsP91JJ5EmV9utKJ-2" target="d5qLYsP91JJ5EmV9utKJ-28">
          <mxGeometry relative="1" as="geometry" />
        </mxCell>
        <mxCell id="d5qLYsP91JJ5EmV9utKJ-2" value="Roles" style="html=1;whiteSpace=wrap;" vertex="1" parent="WIyWlLk6GJQsqaUBKTNV-1">
          <mxGeometry x="1340" y="370" width="110" height="50" as="geometry" />
        </mxCell>
        <mxCell id="d5qLYsP91JJ5EmV9utKJ-7" value="Mantenimientos" style="html=1;whiteSpace=wrap;" vertex="1" parent="WIyWlLk6GJQsqaUBKTNV-1">
          <mxGeometry x="490" y="572" width="110" height="50" as="geometry" />
        </mxCell>
        <mxCell id="d5qLYsP91JJ5EmV9utKJ-22" style="rounded=0;orthogonalLoop=1;jettySize=auto;html=1;entryX=0.5;entryY=1;entryDx=0;entryDy=0;" edge="1" parent="WIyWlLk6GJQsqaUBKTNV-1" source="d5qLYsP91JJ5EmV9utKJ-10" target="d5qLYsP91JJ5EmV9utKJ-17">
          <mxGeometry relative="1" as="geometry" />
        </mxCell>
        <mxCell id="d5qLYsP91JJ5EmV9utKJ-23" style="edgeStyle=orthogonalEdgeStyle;rounded=0;orthogonalLoop=1;jettySize=auto;html=1;" edge="1" parent="WIyWlLk6GJQsqaUBKTNV-1" source="d5qLYsP91JJ5EmV9utKJ-10" target="d5qLYsP91JJ5EmV9utKJ-16">
          <mxGeometry relative="1" as="geometry" />
        </mxCell>
        <mxCell id="d5qLYsP91JJ5EmV9utKJ-24" style="rounded=0;orthogonalLoop=1;jettySize=auto;html=1;entryX=0;entryY=0.5;entryDx=0;entryDy=0;" edge="1" parent="WIyWlLk6GJQsqaUBKTNV-1" source="d5qLYsP91JJ5EmV9utKJ-10" target="d5qLYsP91JJ5EmV9utKJ-14">
          <mxGeometry relative="1" as="geometry" />
        </mxCell>
        <mxCell id="d5qLYsP91JJ5EmV9utKJ-25" style="rounded=0;orthogonalLoop=1;jettySize=auto;html=1;" edge="1" parent="WIyWlLk6GJQsqaUBKTNV-1" source="d5qLYsP91JJ5EmV9utKJ-10" target="d5qLYsP91JJ5EmV9utKJ-19">
          <mxGeometry relative="1" as="geometry" />
        </mxCell>
        <mxCell id="d5qLYsP91JJ5EmV9utKJ-26" style="rounded=0;orthogonalLoop=1;jettySize=auto;html=1;entryX=0;entryY=0.5;entryDx=0;entryDy=0;" edge="1" parent="WIyWlLk6GJQsqaUBKTNV-1" source="d5qLYsP91JJ5EmV9utKJ-10" target="d5qLYsP91JJ5EmV9utKJ-18">
          <mxGeometry relative="1" as="geometry" />
        </mxCell>
        <mxCell id="d5qLYsP91JJ5EmV9utKJ-31" style="edgeStyle=none;rounded=0;orthogonalLoop=1;jettySize=auto;html=1;" edge="1" parent="WIyWlLk6GJQsqaUBKTNV-1" source="d5qLYsP91JJ5EmV9utKJ-10" target="d5qLYsP91JJ5EmV9utKJ-2">
          <mxGeometry relative="1" as="geometry" />
        </mxCell>
        <mxCell id="d5qLYsP91JJ5EmV9utKJ-10" value="Usuarios" style="html=1;whiteSpace=wrap;" vertex="1" parent="WIyWlLk6GJQsqaUBKTNV-1">
          <mxGeometry x="1340" y="180" width="110" height="50" as="geometry" />
        </mxCell>
        <mxCell id="d5qLYsP91JJ5EmV9utKJ-14" value="id" style="ellipse;whiteSpace=wrap;html=1;" vertex="1" parent="WIyWlLk6GJQsqaUBKTNV-1">
          <mxGeometry x="1470" y="80" width="110" height="40" as="geometry" />
        </mxCell>
        <mxCell id="d5qLYsP91JJ5EmV9utKJ-16" value="Rol" style="ellipse;whiteSpace=wrap;html=1;" vertex="1" parent="WIyWlLk6GJQsqaUBKTNV-1">
          <mxGeometry x="1340" y="68" width="110" height="40" as="geometry" />
        </mxCell>
        <mxCell id="d5qLYsP91JJ5EmV9utKJ-17" value="Email" style="ellipse;whiteSpace=wrap;html=1;" vertex="1" parent="WIyWlLk6GJQsqaUBKTNV-1">
          <mxGeometry x="1190" y="68" width="110" height="40" as="geometry" />
        </mxCell>
        <mxCell id="d5qLYsP91JJ5EmV9utKJ-18" value="Nombre" style="ellipse;whiteSpace=wrap;html=1;" vertex="1" parent="WIyWlLk6GJQsqaUBKTNV-1">
          <mxGeometry x="1490" y="230" width="110" height="40" as="geometry" />
        </mxCell>
        <mxCell id="d5qLYsP91JJ5EmV9utKJ-19" value="ContraseÃ±a" style="ellipse;whiteSpace=wrap;html=1;" vertex="1" parent="WIyWlLk6GJQsqaUBKTNV-1">
          <mxGeometry x="1500" y="150" width="110" height="40" as="geometry" />
        </mxCell>
        <mxCell id="d5qLYsP91JJ5EmV9utKJ-27" value="id" style="ellipse;whiteSpace=wrap;html=1;" vertex="1" parent="WIyWlLk6GJQsqaUBKTNV-1">
          <mxGeometry x="1500" y="375" width="110" height="40" as="geometry" />
        </mxCell>
        <mxCell id="d5qLYsP91JJ5EmV9utKJ-28" value="Nombre" style="ellipse;whiteSpace=wrap;html=1;" vertex="1" parent="WIyWlLk6GJQsqaUBKTNV-1">
          <mxGeometry x="1480" y="460" width="110" height="40" as="geometry" />
        </mxCell>
        <mxCell id="d5qLYsP91JJ5EmV9utKJ-32" value="id" style="ellipse;whiteSpace=wrap;html=1;" vertex="1" parent="WIyWlLk6GJQsqaUBKTNV-1">
          <mxGeometry x="990" y="530" width="110" height="40" as="geometry" />
        </mxCell>
        <mxCell id="d5qLYsP91JJ5EmV9utKJ-33" value="Nombre" style="ellipse;whiteSpace=wrap;html=1;" vertex="1" parent="WIyWlLk6GJQsqaUBKTNV-1">
          <mxGeometry x="1120" y="565" width="110" height="40" as="geometry" />
        </mxCell>
        <mxCell id="d5qLYsP91JJ5EmV9utKJ-34" value="Fecha" style="ellipse;whiteSpace=wrap;html=1;" vertex="1" parent="WIyWlLk6GJQsqaUBKTNV-1">
          <mxGeometry x="1241" y="530" width="110" height="40" as="geometry" />
        </mxCell>
        <mxCell id="d5qLYsP91JJ5EmV9utKJ-37" style="edgeStyle=none;rounded=0;orthogonalLoop=1;jettySize=auto;html=1;entryX=0.62;entryY=-0.042;entryDx=0;entryDy=0;entryPerimeter=0;" edge="1" parent="WIyWlLk6GJQsqaUBKTNV-1" source="d5qLYsP91JJ5EmV9utKJ-1" target="d5qLYsP91JJ5EmV9utKJ-32">
          <mxGeometry relative="1" as="geometry" />
        </mxCell>
        <mxCell id="d5qLYsP91JJ5EmV9utKJ-38" value="id" style="ellipse;whiteSpace=wrap;html=1;" vertex="1" parent="WIyWlLk6GJQsqaUBKTNV-1">
          <mxGeometry x="691.5" width="110" height="40" as="geometry" />
        </mxCell>
        <mxCell id="d5qLYsP91JJ5EmV9utKJ-39" value="Nombre" style="ellipse;whiteSpace=wrap;html=1;" vertex="1" parent="WIyWlLk6GJQsqaUBKTNV-1">
          <mxGeometry x="628.5" y="60" width="110" height="40" as="geometry" />
        </mxCell>
        <mxCell id="d5qLYsP91JJ5EmV9utKJ-41" value="Categoria" style="ellipse;whiteSpace=wrap;html=1;" vertex="1" parent="WIyWlLk6GJQsqaUBKTNV-1">
          <mxGeometry x="651.5" y="130" width="110" height="40" as="geometry" />
        </mxCell>
        <mxCell id="d5qLYsP91JJ5EmV9utKJ-43" style="edgeStyle=none;rounded=0;orthogonalLoop=1;jettySize=auto;html=1;" edge="1" parent="WIyWlLk6GJQsqaUBKTNV-1" source="d5qLYsP91JJ5EmV9utKJ-45" target="d5qLYsP91JJ5EmV9utKJ-71">
          <mxGeometry relative="1" as="geometry" />
        </mxCell>
        <mxCell id="d5qLYsP91JJ5EmV9utKJ-44" style="edgeStyle=none;rounded=0;orthogonalLoop=1;jettySize=auto;html=1;entryX=0.5;entryY=0;entryDx=0;entryDy=0;" edge="1" parent="WIyWlLk6GJQsqaUBKTNV-1" source="d5qLYsP91JJ5EmV9utKJ-45" target="d5qLYsP91JJ5EmV9utKJ-72">
          <mxGeometry relative="1" as="geometry" />
        </mxCell>
        <mxCell id="d5qLYsP91JJ5EmV9utKJ-45" value="Categorias" style="html=1;whiteSpace=wrap;" vertex="1" parent="WIyWlLk6GJQsqaUBKTNV-1">
          <mxGeometry x="1131" y="450" width="110" height="50" as="geometry" />
        </mxCell>
        <mxCell id="d5qLYsP91JJ5EmV9utKJ-46" style="edgeStyle=none;rounded=0;orthogonalLoop=1;jettySize=auto;html=1;entryX=0;entryY=0.5;entryDx=0;entryDy=0;" edge="1" parent="WIyWlLk6GJQsqaUBKTNV-1" source="d5qLYsP91JJ5EmV9utKJ-48" target="d5qLYsP91JJ5EmV9utKJ-68">
          <mxGeometry relative="1" as="geometry" />
        </mxCell>
        <mxCell id="d5qLYsP91JJ5EmV9utKJ-47" style="edgeStyle=none;rounded=0;orthogonalLoop=1;jettySize=auto;html=1;" edge="1" parent="WIyWlLk6GJQsqaUBKTNV-1" source="d5qLYsP91JJ5EmV9utKJ-48" target="d5qLYsP91JJ5EmV9utKJ-69">
          <mxGeometry relative="1" as="geometry" />
        </mxCell>
        <mxCell id="d5qLYsP91JJ5EmV9utKJ-48" value="Roles" style="html=1;whiteSpace=wrap;" vertex="1" parent="WIyWlLk6GJQsqaUBKTNV-1">
          <mxGeometry x="1340" y="370" width="110" height="50" as="geometry" />
        </mxCell>
        <mxCell id="d5qLYsP91JJ5EmV9utKJ-89" style="edgeStyle=none;rounded=0;orthogonalLoop=1;jettySize=auto;html=1;entryX=0;entryY=0;entryDx=0;entryDy=0;" edge="1" parent="WIyWlLk6GJQsqaUBKTNV-1" source="d5qLYsP91JJ5EmV9utKJ-49" target="d5qLYsP91JJ5EmV9utKJ-86">
          <mxGeometry relative="1" as="geometry">
            <mxPoint x="915" y="452" as="targetPoint" />
          </mxGeometry>
        </mxCell>
        <mxCell id="d5qLYsP91JJ5EmV9utKJ-90" style="edgeStyle=none;rounded=0;orthogonalLoop=1;jettySize=auto;html=1;" edge="1" parent="WIyWlLk6GJQsqaUBKTNV-1" source="d5qLYsP91JJ5EmV9utKJ-49" target="d5qLYsP91JJ5EmV9utKJ-83">
          <mxGeometry relative="1" as="geometry" />
        </mxCell>
        <mxCell id="d5qLYsP91JJ5EmV9utKJ-91" style="edgeStyle=none;rounded=0;orthogonalLoop=1;jettySize=auto;html=1;entryX=1;entryY=1;entryDx=0;entryDy=0;" edge="1" parent="WIyWlLk6GJQsqaUBKTNV-1" source="d5qLYsP91JJ5EmV9utKJ-49" target="d5qLYsP91JJ5EmV9utKJ-85">
          <mxGeometry relative="1" as="geometry" />
        </mxCell>
        <mxCell id="d5qLYsP91JJ5EmV9utKJ-92" style="edgeStyle=none;rounded=0;orthogonalLoop=1;jettySize=auto;html=1;entryX=1;entryY=0.5;entryDx=0;entryDy=0;" edge="1" parent="WIyWlLk6GJQsqaUBKTNV-1" source="d5qLYsP91JJ5EmV9utKJ-49" target="d5qLYsP91JJ5EmV9utKJ-84">
          <mxGeometry relative="1" as="geometry" />
        </mxCell>
        <mxCell id="d5qLYsP91JJ5EmV9utKJ-93" style="edgeStyle=none;rounded=0;orthogonalLoop=1;jettySize=auto;html=1;entryX=1;entryY=0.5;entryDx=0;entryDy=0;" edge="1" parent="WIyWlLk6GJQsqaUBKTNV-1" source="d5qLYsP91JJ5EmV9utKJ-49" target="d5qLYsP91JJ5EmV9utKJ-88">
          <mxGeometry relative="1" as="geometry" />
        </mxCell>
        <mxCell id="d5qLYsP91JJ5EmV9utKJ-94" style="edgeStyle=none;rounded=0;orthogonalLoop=1;jettySize=auto;html=1;" edge="1" parent="WIyWlLk6GJQsqaUBKTNV-1" source="d5qLYsP91JJ5EmV9utKJ-49" target="d5qLYsP91JJ5EmV9utKJ-87">
          <mxGeometry relative="1" as="geometry" />
        </mxCell>
        <mxCell id="d5qLYsP91JJ5EmV9utKJ-95" style="edgeStyle=none;rounded=0;orthogonalLoop=1;jettySize=auto;html=1;" edge="1" parent="WIyWlLk6GJQsqaUBKTNV-1" source="d5qLYsP91JJ5EmV9utKJ-49" target="d5qLYsP91JJ5EmV9utKJ-0">
          <mxGeometry relative="1" as="geometry" />
        </mxCell>
        <mxCell id="d5qLYsP91JJ5EmV9utKJ-49" value="Almacenamiento" style="html=1;whiteSpace=wrap;" vertex="1" parent="WIyWlLk6GJQsqaUBKTNV-1">
          <mxGeometry x="770" y="377" width="110" height="50" as="geometry" />
        </mxCell>
        <mxCell id="d5qLYsP91JJ5EmV9utKJ-50" value="Ciudades" style="html=1;whiteSpace=wrap;" vertex="1" parent="WIyWlLk6GJQsqaUBKTNV-1">
          <mxGeometry x="390" y="650" width="110" height="50" as="geometry" />
        </mxCell>
        <mxCell id="d5qLYsP91JJ5EmV9utKJ-51" value="Poblacion" style="html=1;whiteSpace=wrap;" vertex="1" parent="WIyWlLk6GJQsqaUBKTNV-1">
          <mxGeometry x="310" y="360" width="110" height="50" as="geometry" />
        </mxCell>
        <mxCell id="d5qLYsP91JJ5EmV9utKJ-99" style="edgeStyle=none;rounded=0;orthogonalLoop=1;jettySize=auto;html=1;entryX=0.5;entryY=1;entryDx=0;entryDy=0;" edge="1" parent="WIyWlLk6GJQsqaUBKTNV-1" source="d5qLYsP91JJ5EmV9utKJ-53" target="d5qLYsP91JJ5EmV9utKJ-98">
          <mxGeometry relative="1" as="geometry" />
        </mxCell>
        <mxCell id="d5qLYsP91JJ5EmV9utKJ-101" style="edgeStyle=none;rounded=0;orthogonalLoop=1;jettySize=auto;html=1;entryX=1;entryY=0.5;entryDx=0;entryDy=0;" edge="1" parent="WIyWlLk6GJQsqaUBKTNV-1" source="d5qLYsP91JJ5EmV9utKJ-53" target="d5qLYsP91JJ5EmV9utKJ-96">
          <mxGeometry relative="1" as="geometry" />
        </mxCell>
        <mxCell id="d5qLYsP91JJ5EmV9utKJ-103" style="edgeStyle=none;rounded=0;orthogonalLoop=1;jettySize=auto;html=1;entryX=1;entryY=0.5;entryDx=0;entryDy=0;" edge="1" parent="WIyWlLk6GJQsqaUBKTNV-1" source="d5qLYsP91JJ5EmV9utKJ-53" target="d5qLYsP91JJ5EmV9utKJ-102">
          <mxGeometry relative="1" as="geometry" />
        </mxCell>
        <mxCell id="d5qLYsP91JJ5EmV9utKJ-105" style="edgeStyle=none;rounded=0;orthogonalLoop=1;jettySize=auto;html=1;" edge="1" parent="WIyWlLk6GJQsqaUBKTNV-1" source="d5qLYsP91JJ5EmV9utKJ-53" target="d5qLYsP91JJ5EmV9utKJ-104">
          <mxGeometry relative="1" as="geometry" />
        </mxCell>
        <mxCell id="d5qLYsP91JJ5EmV9utKJ-53" value="Proveedores" style="html=1;whiteSpace=wrap;" vertex="1" parent="WIyWlLk6GJQsqaUBKTNV-1">
          <mxGeometry x="330" y="130" width="110" height="50" as="geometry" />
        </mxCell>
        <mxCell id="d5qLYsP91JJ5EmV9utKJ-54" value="CompaÃ±Ã­as" style="html=1;whiteSpace=wrap;" vertex="1" parent="WIyWlLk6GJQsqaUBKTNV-1">
          <mxGeometry x="610" y="635" width="110" height="50" as="geometry" />
        </mxCell>
        <mxCell id="d5qLYsP91JJ5EmV9utKJ-55" style="rounded=0;orthogonalLoop=1;jettySize=auto;html=1;entryX=0.5;entryY=1;entryDx=0;entryDy=0;" edge="1" parent="WIyWlLk6GJQsqaUBKTNV-1" source="d5qLYsP91JJ5EmV9utKJ-61" target="d5qLYsP91JJ5EmV9utKJ-64">
          <mxGeometry relative="1" as="geometry" />
        </mxCell>
        <mxCell id="d5qLYsP91JJ5EmV9utKJ-56" style="edgeStyle=orthogonalEdgeStyle;rounded=0;orthogonalLoop=1;jettySize=auto;html=1;" edge="1" parent="WIyWlLk6GJQsqaUBKTNV-1" source="d5qLYsP91JJ5EmV9utKJ-61" target="d5qLYsP91JJ5EmV9utKJ-63">
          <mxGeometry relative="1" as="geometry" />
        </mxCell>
        <mxCell id="d5qLYsP91JJ5EmV9utKJ-57" style="rounded=0;orthogonalLoop=1;jettySize=auto;html=1;entryX=0;entryY=0.5;entryDx=0;entryDy=0;" edge="1" parent="WIyWlLk6GJQsqaUBKTNV-1" source="d5qLYsP91JJ5EmV9utKJ-61" target="d5qLYsP91JJ5EmV9utKJ-62">
          <mxGeometry relative="1" as="geometry" />
        </mxCell>
        <mxCell id="d5qLYsP91JJ5EmV9utKJ-58" style="rounded=0;orthogonalLoop=1;jettySize=auto;html=1;" edge="1" parent="WIyWlLk6GJQsqaUBKTNV-1" source="d5qLYsP91JJ5EmV9utKJ-61" target="d5qLYsP91JJ5EmV9utKJ-66">
          <mxGeometry relative="1" as="geometry" />
        </mxCell>
        <mxCell id="d5qLYsP91JJ5EmV9utKJ-59" style="rounded=0;orthogonalLoop=1;jettySize=auto;html=1;entryX=0;entryY=0.5;entryDx=0;entryDy=0;" edge="1" parent="WIyWlLk6GJQsqaUBKTNV-1" source="d5qLYsP91JJ5EmV9utKJ-61" target="d5qLYsP91JJ5EmV9utKJ-65">
          <mxGeometry relative="1" as="geometry" />
        </mxCell>
        <mxCell id="d5qLYsP91JJ5EmV9utKJ-60" style="edgeStyle=none;rounded=0;orthogonalLoop=1;jettySize=auto;html=1;" edge="1" parent="WIyWlLk6GJQsqaUBKTNV-1" source="d5qLYsP91JJ5EmV9utKJ-61" target="d5qLYsP91JJ5EmV9utKJ-48">
          <mxGeometry relative="1" as="geometry" />
        </mxCell>
        <mxCell id="d5qLYsP91JJ5EmV9utKJ-61" value="Usuarios" style="html=1;whiteSpace=wrap;" vertex="1" parent="WIyWlLk6GJQsqaUBKTNV-1">
          <mxGeometry x="1340" y="180" width="110" height="50" as="geometry" />
        </mxCell>
        <mxCell id="d5qLYsP91JJ5EmV9utKJ-62" value="id" style="ellipse;whiteSpace=wrap;html=1;" vertex="1" parent="WIyWlLk6GJQsqaUBKTNV-1">
          <mxGeometry x="1470" y="80" width="110" height="40" as="geometry" />
        </mxCell>
        <mxCell id="d5qLYsP91JJ5EmV9utKJ-63" value="Rol" style="ellipse;whiteSpace=wrap;html=1;" vertex="1" parent="WIyWlLk6GJQsqaUBKTNV-1">
          <mxGeometry x="1340" y="68" width="110" height="40" as="geometry" />
        </mxCell>
        <mxCell id="d5qLYsP91JJ5EmV9utKJ-64" value="Email" style="ellipse;whiteSpace=wrap;html=1;" vertex="1" parent="WIyWlLk6GJQsqaUBKTNV-1">
          <mxGeometry x="1190" y="68" width="110" height="40" as="geometry" />
        </mxCell>
        <mxCell id="d5qLYsP91JJ5EmV9utKJ-65" value="Nombre" style="ellipse;whiteSpace=wrap;html=1;" vertex="1" parent="WIyWlLk6GJQsqaUBKTNV-1">
          <mxGeometry x="1490" y="230" width="110" height="40" as="geometry" />
        </mxCell>
        <mxCell id="d5qLYsP91JJ5EmV9utKJ-66" value="ContraseÃ±a" style="ellipse;whiteSpace=wrap;html=1;" vertex="1" parent="WIyWlLk6GJQsqaUBKTNV-1">
          <mxGeometry x="1500" y="150" width="110" height="40" as="geometry" />
        </mxCell>
        <mxCell id="d5qLYsP91JJ5EmV9utKJ-67" value="Reportes" style="html=1;whiteSpace=wrap;" vertex="1" parent="WIyWlLk6GJQsqaUBKTNV-1">
          <mxGeometry x="200" y="610" width="110" height="50" as="geometry" />
        </mxCell>
        <mxCell id="d5qLYsP91JJ5EmV9utKJ-68" value="id" style="ellipse;whiteSpace=wrap;html=1;" vertex="1" parent="WIyWlLk6GJQsqaUBKTNV-1">
          <mxGeometry x="1500" y="375" width="110" height="40" as="geometry" />
        </mxCell>
        <mxCell id="d5qLYsP91JJ5EmV9utKJ-69" value="Nombre" style="ellipse;whiteSpace=wrap;html=1;" vertex="1" parent="WIyWlLk6GJQsqaUBKTNV-1">
          <mxGeometry x="1480" y="460" width="110" height="40" as="geometry" />
        </mxCell>
        <mxCell id="d5qLYsP91JJ5EmV9utKJ-70" value="id" style="ellipse;whiteSpace=wrap;html=1;" vertex="1" parent="WIyWlLk6GJQsqaUBKTNV-1">
          <mxGeometry x="990" y="530" width="110" height="40" as="geometry" />
        </mxCell>
        <mxCell id="d5qLYsP91JJ5EmV9utKJ-71" value="Nombre" style="ellipse;whiteSpace=wrap;html=1;" vertex="1" parent="WIyWlLk6GJQsqaUBKTNV-1">
          <mxGeometry x="1120" y="565" width="110" height="40" as="geometry" />
        </mxCell>
        <mxCell id="d5qLYsP91JJ5EmV9utKJ-72" value="Fecha" style="ellipse;whiteSpace=wrap;html=1;" vertex="1" parent="WIyWlLk6GJQsqaUBKTNV-1">
          <mxGeometry x="1241" y="530" width="110" height="40" as="geometry" />
        </mxCell>
        <mxCell id="d5qLYsP91JJ5EmV9utKJ-73" style="edgeStyle=none;rounded=0;orthogonalLoop=1;jettySize=auto;html=1;entryX=0.62;entryY=-0.042;entryDx=0;entryDy=0;entryPerimeter=0;" edge="1" parent="WIyWlLk6GJQsqaUBKTNV-1" source="d5qLYsP91JJ5EmV9utKJ-45" target="d5qLYsP91JJ5EmV9utKJ-70">
          <mxGeometry relative="1" as="geometry" />
        </mxCell>
        <mxCell id="d5qLYsP91JJ5EmV9utKJ-74" value="id" style="ellipse;whiteSpace=wrap;html=1;" vertex="1" parent="WIyWlLk6GJQsqaUBKTNV-1">
          <mxGeometry x="691.5" width="110" height="40" as="geometry" />
        </mxCell>
        <mxCell id="d5qLYsP91JJ5EmV9utKJ-75" value="Nombre" style="ellipse;whiteSpace=wrap;html=1;" vertex="1" parent="WIyWlLk6GJQsqaUBKTNV-1">
          <mxGeometry x="628.5" y="60" width="110" height="40" as="geometry" />
        </mxCell>
        <mxCell id="d5qLYsP91JJ5EmV9utKJ-76" value="Categoria" style="ellipse;whiteSpace=wrap;html=1;" vertex="1" parent="WIyWlLk6GJQsqaUBKTNV-1">
          <mxGeometry x="651.5" y="130" width="110" height="40" as="geometry" />
        </mxCell>
        <mxCell id="d5qLYsP91JJ5EmV9utKJ-77" value="Descripcion" style="ellipse;whiteSpace=wrap;html=1;" vertex="1" parent="WIyWlLk6GJQsqaUBKTNV-1">
          <mxGeometry x="751.5" y="180" width="110" height="40" as="geometry" />
        </mxCell>
        <mxCell id="d5qLYsP91JJ5EmV9utKJ-83" value="Tipo de transaccion" style="ellipse;whiteSpace=wrap;html=1;" vertex="1" parent="WIyWlLk6GJQsqaUBKTNV-1">
          <mxGeometry x="800" y="532" width="110" height="40" as="geometry" />
        </mxCell>
        <mxCell id="d5qLYsP91JJ5EmV9utKJ-84" value="id" style="ellipse;whiteSpace=wrap;html=1;" vertex="1" parent="WIyWlLk6GJQsqaUBKTNV-1">
          <mxGeometry x="610" y="347" width="110" height="40" as="geometry" />
        </mxCell>
        <mxCell id="d5qLYsP91JJ5EmV9utKJ-85" value="Id de las personas" style="ellipse;whiteSpace=wrap;html=1;" vertex="1" parent="WIyWlLk6GJQsqaUBKTNV-1">
          <mxGeometry x="647" y="272" width="110" height="40" as="geometry" />
        </mxCell>
        <mxCell id="d5qLYsP91JJ5EmV9utKJ-86" value="Productos" style="ellipse;whiteSpace=wrap;html=1;" vertex="1" parent="WIyWlLk6GJQsqaUBKTNV-1">
          <mxGeometry x="900" y="450" width="110" height="40" as="geometry" />
        </mxCell>
        <mxCell id="d5qLYsP91JJ5EmV9utKJ-87" value="Categorias" style="ellipse;whiteSpace=wrap;html=1;" vertex="1" parent="WIyWlLk6GJQsqaUBKTNV-1">
          <mxGeometry x="700" y="512" width="110" height="40" as="geometry" />
        </mxCell>
        <mxCell id="d5qLYsP91JJ5EmV9utKJ-88" value="Fecha" style="ellipse;whiteSpace=wrap;html=1;" vertex="1" parent="WIyWlLk6GJQsqaUBKTNV-1">
          <mxGeometry x="610" y="427" width="110" height="40" as="geometry" />
        </mxCell>
        <mxCell id="d5qLYsP91JJ5EmV9utKJ-96" value="id" style="ellipse;whiteSpace=wrap;html=1;" vertex="1" parent="WIyWlLk6GJQsqaUBKTNV-1">
          <mxGeometry x="170" y="90" width="110" height="40" as="geometry" />
        </mxCell>
        <mxCell id="d5qLYsP91JJ5EmV9utKJ-97" value="Nombre" style="ellipse;whiteSpace=wrap;html=1;" vertex="1" parent="WIyWlLk6GJQsqaUBKTNV-1">
          <mxGeometry x="260" y="28" width="110" height="40" as="geometry" />
        </mxCell>
        <mxCell id="d5qLYsP91JJ5EmV9utKJ-98" value="Productos" style="ellipse;whiteSpace=wrap;html=1;" vertex="1" parent="WIyWlLk6GJQsqaUBKTNV-1">
          <mxGeometry x="390" y="20" width="110" height="40" as="geometry" />
        </mxCell>
        <mxCell id="d5qLYsP91JJ5EmV9utKJ-100" style="edgeStyle=none;rounded=0;orthogonalLoop=1;jettySize=auto;html=1;entryX=0.679;entryY=0.964;entryDx=0;entryDy=0;entryPerimeter=0;" edge="1" parent="WIyWlLk6GJQsqaUBKTNV-1" source="d5qLYsP91JJ5EmV9utKJ-53" target="d5qLYsP91JJ5EmV9utKJ-97">
          <mxGeometry relative="1" as="geometry" />
        </mxCell>
        <mxCell id="d5qLYsP91JJ5EmV9utKJ-102" value="Fecha" style="ellipse;whiteSpace=wrap;html=1;" vertex="1" parent="WIyWlLk6GJQsqaUBKTNV-1">
          <mxGeometry x="150" y="185" width="110" height="40" as="geometry" />
        </mxCell>
        <mxCell id="d5qLYsP91JJ5EmV9utKJ-104" value="CompaÃ±ia" style="ellipse;whiteSpace=wrap;html=1;" vertex="1" parent="WIyWlLk6GJQsqaUBKTNV-1">
          <mxGeometry x="480" y="68" width="110" height="40" as="geometry" />
        </mxCell>
      </root>
    </mxGraphModel>
  </diagram>
</mxfile>
